<svg xmlns="http://www.w3.org/2000/svg" viewBox="0 0 74.08 14.36"><title>Asset 1</title><path d="M33,14.36a7.18,7.18,0,1,1,7.2-7.19A7.17,7.17,0,0,1,33,14.36ZM33,1a6.16,6.16,0,1,0,6.16,6.16h0A6.18,6.18,0,0,0,33,1Z" fill="#4067b1"/><rect x="30.41" y="4.96" width="0.83" height="4.42" rx="0.15" ry="0.15" fill="#4067b1"/><rect x="31.88" y="4.96" width="0.83" height="4.42" rx="0.16" ry="0.16" fill="#4067b1"/><rect x="33.36" y="4.96" width="0.83" height="4.42" rx="0.13" ry="0.13" fill="#4067b1"/><rect x="34.83" y="4.96" width="0.83" height="4.42" rx="0.16" ry="0.16" fill="#4067b1"/><path d="M3.8,3.32a4,4,0,0,1,2.57,1,.2.2,0,0,1,0,.28l0,0-.65.68a.19.19,0,0,1-.25,0l0,0a2.39,2.39,0,0,0-1.59-.61,2.43,2.43,0,0,0,0,4.86,3.18,3.18,0,0,0,1.25-.26v-.9H4.29a.19.19,0,0,1-.2-.18h0V7.35a.19.19,0,0,1,.18-.2h2a.2.2,0,0,1,.19.2v2.7a.21.21,0,0,1-.08.17,5.33,5.33,0,0,1-2.61.69,3.79,3.79,0,0,1,0-7.58Z" fill="#4067b1"/><path d="M15.53,3.32a3.79,3.79,0,1,1-3.78,3.8,3.79,3.79,0,0,1,3.78-3.8Zm0,6.22a2.42,2.42,0,1,0-2.41-2.43h0A2.43,2.43,0,0,0,15.53,9.54Z" fill="#4067b1"/><path d="M45.82,3.62a.22.22,0,0,1,.2-.2h1a.2.2,0,0,1,.2.2h0V7.94a1.54,1.54,0,0,0,3.07,0V3.62a.2.2,0,0,1,.2-.2h1a.22.22,0,0,1,.2.2V8a2.94,2.94,0,0,1-5.87,0Z" fill="#4067b1"/><path d="M57.73,3.62a.2.2,0,0,1,.2-.2h2.48a2.35,2.35,0,1,1,0,4.7H59.1V10.6a.22.22,0,0,1-.2.2h-1a.2.2,0,0,1-.2-.2h0Zm2.59,3.22a1.09,1.09,0,0,0,1.09-1.09h0a1,1,0,0,0-1.09-1H59.1v2.1Z" fill="#4067b1"/><path d="M71.46,3.32a3.56,3.56,0,0,1,2.55,1,.2.2,0,0,1,0,.28l0,0-.64.66a.17.17,0,0,1-.24,0l0,0a2.53,2.53,0,0,0-1.62-.62,2.39,2.39,0,0,0-2.35,2.43h0a2.39,2.39,0,0,0,2.35,2.43h0a2.56,2.56,0,0,0,1.61-.6.19.19,0,0,1,.26,0l.65.67a.19.19,0,0,1,0,.28,3.6,3.6,0,0,1-2.56,1,3.8,3.8,0,0,1,0-7.59Z" fill="#4067b1"/></svg>